<svg width="524" height="493" viewBox="0 0 524 493" fill="none" xmlns="http://www.w3.org/2000/svg">
<g clip-path="url(#clip0_1485_2)">
<path d="M315 172C339.853 172 360 151.853 360 127C360 102.147 339.853 82 315 82C290.147 82 270 102.147 270 127C270 151.853 290.147 172 315 172Z" fill="#FF6584"/>
<path d="M72.7092 353.945H69.4577V349.419C69.4563 346.418 68.3027 343.53 66.2329 341.348C64.1631 339.166 61.3338 337.853 58.3239 337.68V307H55.7042V337.645H43.9155V353.945H2V485H95V376.137C95 373.222 94.4235 370.337 93.3032 367.644C92.183 364.952 90.5411 362.505 88.4712 360.445C86.4013 358.384 83.944 356.75 81.2395 355.634C78.5351 354.519 75.6364 353.945 72.7092 353.945Z" fill="#F2F2F2"/>
<path d="M375.678 150.369H371.912V127.182C371.912 124.048 370.667 121.043 368.452 118.827C366.236 116.612 363.231 115.367 360.097 115.367H343.779V82H341.162V115.367H318.918V150.369H297V486H420V194.691C420 182.936 415.33 171.663 407.018 163.351C398.706 155.039 387.433 150.369 375.678 150.369Z" fill="#F2F2F2"/>
<path d="M52.7747 391.008H34.1394C26.9121 391.008 21.0532 396.867 21.0532 404.094V472.914C21.0532 480.141 26.9121 486 34.1394 486H52.7747C60.002 486 65.8609 480.141 65.8609 472.914V404.094C65.8609 396.867 60.002 391.008 52.7747 391.008Z" fill="#3F3D56"/>
<path d="M346.713 391.008H328.078C320.851 391.008 314.992 396.867 314.992 404.094V472.914C314.992 480.141 320.851 486 328.078 486H346.713C353.94 486 359.799 480.141 359.799 472.914V404.094C359.799 396.867 353.94 391.008 346.713 391.008Z" fill="#3F3D56"/>
<path d="M334.901 462.7H50.3015C40.4071 462.7 31.9407 455.634 30.1707 445.9L19.2869 386.039C16.3165 369.702 19.0725 353.172 26.6101 339C31.0837 330.589 37.2417 323.009 44.8865 316.792L66.3476 270.619C71.3222 259.915 82.1629 253 93.9654 253H254.282C262.804 253 270.993 256.606 276.748 262.893L316.182 305.979C345.033 325.42 361.4 359.045 358.904 393.747L355.31 443.707C354.543 454.357 345.579 462.7 334.901 462.7Z" fill="#DFDFDF"/>
<path d="M75 300H294L273.253 379H108.196L75 300Z" fill="#6F0A59"/>
<path d="M286.33 312.594H71.3116C67.5774 312.594 64.1315 310.726 62.0939 307.597C60.0563 304.467 59.7415 300.56 61.252 297.145L72.5854 271.522C74.3103 267.622 78.1792 265.052 82.4414 264.974L265.739 265.197C269.229 265.174 272.561 266.745 274.678 269.51L295.066 294.91C297.628 298.258 298.06 302.686 296.192 306.466C294.325 310.246 290.546 312.594 286.33 312.594Z" fill="white"/>
<path d="M22.4998 348.5L117 347V379H18.2916L18 371.5L18.595 363.499L19.4998 359L20.595 354.499L21.595 350.999L22.4998 348.5Z" fill="#6F0A59"/>
<path d="M351.5 348.5L258 347V379H359L358 371.5L356.5 364.5L355 359L354 355L352.5 351L351.5 348.5Z" fill="#6F0A59"/>
<path d="M318.576 380.254C328.97 380.254 337.395 371.828 337.395 361.434C337.395 351.041 328.97 342.615 318.576 342.615C308.183 342.615 299.757 351.041 299.757 361.434C299.757 371.828 308.183 380.254 318.576 380.254Z" fill="white"/>
<path d="M300.205 431.783H94.9858V431.335C94.9858 420.71 103.629 412.067 114.253 412.067H280.938C291.562 412.067 300.205 420.71 300.205 431.335V431.783Z" fill="#3F3D56"/>
<path d="M47.9027 320.739C46.7921 320.739 45.6793 320.385 44.7451 319.671L37.2313 313.927C36.4852 313.356 35.5569 313.042 34.6172 313.042H18.2084C16.331 313.042 14.6485 312.072 13.7079 310.447C12.7674 308.823 12.7639 306.881 13.6985 305.253L17.7043 298.275C18.5044 296.881 19.9333 295.922 21.527 295.709L42.0567 292.971C44.6154 292.632 46.9976 294.178 47.7298 296.65L52.8895 314.063C53.4577 315.981 52.8619 318.081 51.3715 319.416C50.3894 320.294 49.1476 320.739 47.9027 320.739Z" fill="#DFDFDF"/>
<path d="M314.13 317.155C312.886 317.155 311.644 316.71 310.662 315.831C309.171 314.497 308.576 312.396 309.144 310.479L314.303 293.065C315.036 290.592 317.422 289.04 319.976 289.388L340.506 292.124C342.1 292.337 343.529 293.296 344.329 294.69L348.335 301.669C349.269 303.297 349.266 305.239 348.325 306.863C347.385 308.488 345.702 309.458 343.825 309.458H327.416C326.476 309.458 325.548 309.772 324.802 310.342L317.288 316.087C316.354 316.801 315.241 317.155 314.13 317.155Z" fill="#DFDFDF"/>
<path d="M71.2377 380.254C81.6313 380.254 90.0569 371.828 90.0569 361.434C90.0569 351.041 81.6313 342.615 71.2377 342.615C60.8441 342.615 52.4185 351.041 52.4185 361.434C52.4185 371.828 60.8441 380.254 71.2377 380.254Z" fill="white"/>
<path d="M0 485.439C0 485.782 0.27531 486.057 0.61815 486.057H522.43C522.773 486.057 523.048 485.782 523.048 485.439C523.048 485.096 522.773 484.821 522.43 484.821H0.61815C0.27531 484.821 0 485.096 0 485.439Z" fill="#3F3D56"/>
<path d="M374.255 271.686C368.202 269.607 364.442 264.697 365.856 260.72C367.27 256.742 373.323 255.205 379.378 257.285C381.808 258.082 383.999 259.468 385.767 261.327L411.295 270.471L406.471 282.753L381.817 272.436C379.256 272.808 376.663 272.551 374.255 271.686Z" fill="#FFAFAF"/>
<path d="M433.406 224.32C442.489 223.785 449.954 231.392 449.248 240.463L445.789 284.885C445.412 289.733 440.773 293.083 436.052 291.916C419.057 288.425 417.288 289.12 402.645 282.599L409.092 268.139L422.55 269.245L419.377 240.972C418.419 232.427 424.822 224.826 433.406 224.32Z" fill="#6F0A59"/>
<path d="M466.67 444.324V464.752L482.116 465.25L481.472 444.324H466.67Z" fill="#FFAFAF"/>
<path d="M463.614 455.69C463.405 455.69 463.201 455.717 463.002 455.774C460.215 456.57 444.079 470.976 439.2 475.372C438.597 475.915 438.277 476.691 438.321 477.5C438.365 478.306 438.766 479.038 439.421 479.509C443.121 482.174 450.701 486.39 459.899 484.686C464.13 483.902 468.399 483.409 472.166 482.975C480.231 482.044 486.6 481.308 486.6 478.454C486.6 473.61 485.268 460.844 483.596 460.307C483.444 460.261 483.269 460.379 483.066 460.662C480.508 464.242 471.722 462.337 471.35 462.255L471.252 462.233L471.196 462.15C471.151 462.081 466.849 455.69 463.614 455.69Z" fill="#2F2E41"/>
<path d="M437.772 444.324V464.752L453.218 465.25L452.574 444.324H437.772Z" fill="#FFAFAF"/>
<path d="M431.544 298.088L423.323 304.316L421.828 374.569L435.779 451.299L453.965 452.046L454.463 378.804L477.881 312.039L473.148 296.344L431.544 298.088Z" fill="#2F2E41"/>
<path d="M469.909 310.046L477.881 312.039L483.61 451.299L462.933 449.555L449.231 351.151L469.909 310.046Z" fill="#2F2E41"/>
<path d="M426.744 485.574C419.656 485.574 413.897 482.441 410.822 480.329C409.892 479.691 409.317 478.678 409.244 477.549C409.169 476.411 409.613 475.321 410.461 474.558C418.095 467.691 431.301 456.056 433.966 455.295C437.422 454.305 442.059 460.912 442.655 461.788C443.62 461.986 451.53 463.497 453.762 460.372C454.188 459.776 454.587 459.749 454.85 459.833C457.235 460.597 458.2 475.952 458.2 478.453C458.2 481.752 451.961 482.472 443.325 483.469C439.566 483.903 435.305 484.395 431.091 485.175C429.597 485.452 428.145 485.574 426.744 485.574Z" fill="#2F2E41"/>
<path d="M389.236 229.609C389.09 228.921 388.592 228.361 387.927 228.133L373.272 223.119C371.816 222.621 370.367 223.884 370.661 225.394L377.292 259.43C377.422 260.097 377.881 260.652 378.512 260.905L394.022 267.109C395.507 267.703 397.054 266.4 396.721 264.836L389.236 229.609Z" fill="#5B5B5B"/>
<path d="M448.627 207.094L454.302 218.527L432.853 228.886L433.115 210.558L448.627 207.094Z" fill="#FFAFAF"/>
<path d="M432.93 215.743C443.589 215.743 452.23 207.102 452.23 196.443C452.23 185.784 443.589 177.143 432.93 177.143C422.27 177.143 413.629 185.784 413.629 196.443C413.629 207.102 422.27 215.743 432.93 215.743Z" fill="#FFAFAF"/>
<path d="M432.799 224.429L452.588 212.735C467.103 222.914 479.19 225.296 479.574 243.02L476.899 285.298L477.056 303.506C477.122 311.149 470.944 317.381 463.3 317.381H435.041C427.563 317.381 421.991 310.481 423.566 303.171L428.901 278.401L423.204 230.126L432.799 224.429Z" fill="#6F0A59"/>
<path d="M452.776 206.154L449.208 208.71C449.208 208.71 448.158 197.568 446.709 197.074C445.26 196.579 443.306 199.147 443.306 199.147L441.878 203.33L437.158 201.363C437.158 201.363 431.692 198.419 429.761 197.76C427.829 197.1 428.122 191.503 428.122 191.503C428.122 191.503 404.932 194.678 408.416 181.309C408.416 181.309 409.616 171.474 412.184 173.429C414.752 175.384 414.786 170.543 414.786 170.543L420.605 169.294C420.605 169.294 428.588 158.539 444.337 167.688C460.086 176.837 452.776 206.154 452.776 206.154Z" fill="#2F2E41"/>
<path d="M455.908 220.889C464.863 219.282 473.177 225.951 473.551 235.042L475.38 279.56C475.58 284.419 471.37 288.295 466.545 287.695C449.255 286.243 450.47 288.014 435.157 283.273L436.182 267L450.451 266.784L443.951 239.086C441.987 230.715 447.445 222.408 455.908 220.889Z" fill="#6F0A59"/>
<path d="M402.786 274.93C396.53 273.582 392.214 269.153 393.147 265.036C394.08 260.919 399.907 258.675 406.166 260.024C408.674 260.527 411.014 261.644 412.989 263.28L439.421 269.334L436.087 282.102L410.384 274.778C407.884 275.452 405.279 275.504 402.786 274.93Z" fill="#FFAFAF"/>
<path d="M65.2406 84.9525C63.1516 83.4779 60.8662 81.9403 58.31 82.0018C52.1232 82.1506 48.7875 91.2201 42.6071 90.9012C38.6656 90.6978 36.0492 86.6938 32.3793 85.242C27.6014 83.352 21.5213 87.0484 21 92.16L21.6136 91.5984C40.1861 96.126 59.4593 97.0164 78.3701 94.2204C73.9936 91.1311 69.6171 88.0418 65.2406 84.9525Z" fill="#F0F0F0"/>
<path d="M140.507 173.282C139.634 172.642 138.677 171.974 137.608 172.001C135.02 172.065 133.625 176.005 131.039 175.866C129.39 175.778 128.296 174.039 126.76 173.408C124.762 172.587 122.218 174.193 122 176.413L122.257 176.169C130.026 178.136 138.089 178.522 146 177.308C144.169 175.966 142.338 174.624 140.507 173.282Z" fill="#F0F0F0"/>
<path d="M423.241 77.9525C421.152 76.478 418.866 74.9403 416.31 75.0018C410.123 75.1506 406.788 84.2201 400.607 83.9012C396.666 83.6978 394.049 79.6938 390.379 78.242C385.601 76.352 379.521 80.0484 379 85.16L379.614 84.5984C398.186 89.126 417.459 90.0164 436.37 87.2204C431.994 84.1311 427.617 81.0418 423.241 77.9525Z" fill="#F0F0F0"/>
</g>
<defs>
<clipPath id="clip0_1485_2">
<rect width="523.048" height="492.574" fill="white"/>
</clipPath>
</defs>
</svg>
